<svg xmlns="http://www.w3.org/2000/svg" width="720" height="486" viewBox="0 0 720 486" role="img" aria-label="A stylized brain surrounded by the five cognitive processes Mnemos runs, numbered in order: encode, consolidate, forget, retrieve, and reflect — the last being the brain-health vitals, the brain measuring itself." font-family="system-ui, -apple-system, Segoe UI, sans-serif">
<title>One brain, five organs</title>
<text x="24" y="34" fill="currentColor" font-size="17" font-weight="600">One brain, five organs</text>
<text x="24" y="55" fill="currentColor" opacity="0.62" font-size="12.5">The processes a memory needs — run continuously, deterministically, and now on a sleep cycle.</text>
<ellipse cx="360" cy="260" rx="150" ry="132" fill="#E11D48" fill-opacity="0.04"/>
<g stroke="#E11D48" fill="none" stroke-width="2" stroke-linecap="round" stroke-linejoin="round"><path d="M360 156 C 298 156 258 178 246 214 C 208 212 190 242 204 268 C 184 288 198 320 224 326 C 230 356 270 368 302 356 C 318 374 356 374 360 356 C 364 374 402 374 418 356 C 450 368 490 356 496 326 C 522 320 536 288 516 268 C 530 242 512 212 474 214 C 462 178 422 156 360 156 Z" fill="#E11D48" fill-opacity="0.06"/><path d="M360 162 C 355 208 365 250 358 298 C 353 330 362 344 360 356" opacity="0.5"/><path d="M298 194 C 320 204 316 222 296 228" opacity="0.45"/><path d="M256 240 C 282 244 284 264 262 272" opacity="0.45"/><path d="M256 300 C 284 300 296 314 282 330" opacity="0.45"/><path d="M320 328 C 332 312 328 298 310 296" opacity="0.45"/><path d="M422 194 C 400 204 404 222 424 228" opacity="0.45"/><path d="M464 240 C 438 244 436 264 458 272" opacity="0.45"/><path d="M464 300 C 436 300 424 314 438 330" opacity="0.45"/><path d="M400 328 C 388 312 392 298 410 296" opacity="0.45"/><path d="M352 356 C 350 372 350 386 356 398 M368 356 C 370 372 370 386 364 398" opacity="0.65"/></g>
<line x1="246" y1="214" x2="288" y2="116" stroke="#E11D48" stroke-opacity="0.4" stroke-width="1.5"/>
<circle cx="246" cy="214" r="3" fill="#E11D48"/>
<rect x="20" y="92" width="268" height="48" rx="12" fill="#E11D48" fill-opacity="0.06" stroke="#E11D48" stroke-opacity="0.55"/>
<circle cx="44" cy="116.0" r="13" fill="#E11D48"/>
<text x="44" y="120" fill="#fff" font-size="13" font-weight="700" text-anchor="middle">1</text>
<text x="66" y="114" fill="#E11D48" font-size="14" font-weight="700">Encode</text>
<text x="66" y="131" fill="currentColor" opacity="0.72" font-size="11.5">capture → claims; salience gates what matters</text>
<line x1="474" y1="214" x2="432" y2="116" stroke="#E11D48" stroke-opacity="0.4" stroke-width="1.5"/>
<circle cx="474" cy="214" r="3" fill="#E11D48"/>
<rect x="432" y="92" width="268" height="48" rx="12" fill="#E11D48" fill-opacity="0.06" stroke="#E11D48" stroke-opacity="0.55"/>
<circle cx="456" cy="116.0" r="13" fill="#E11D48"/>
<text x="456" y="120" fill="#fff" font-size="13" font-weight="700" text-anchor="middle">2</text>
<text x="478" y="114" fill="#E11D48" font-size="14" font-weight="700">Consolidate</text>
<text x="478" y="131" fill="currentColor" opacity="0.72" font-size="11.5">sleep: dedupe · gist · reinforce · replay</text>
<line x1="224" y1="300" x2="256" y2="274" stroke="#E11D48" stroke-opacity="0.4" stroke-width="1.5"/>
<circle cx="224" cy="300" r="3" fill="#E11D48"/>
<rect x="20" y="250" width="236" height="48" rx="12" fill="#E11D48" fill-opacity="0.06" stroke="#E11D48" stroke-opacity="0.55"/>
<circle cx="44" cy="274.0" r="13" fill="#E11D48"/>
<text x="44" y="278" fill="#fff" font-size="13" font-weight="700" text-anchor="middle">3</text>
<text x="66" y="272" fill="#E11D48" font-size="14" font-weight="700">Forget</text>
<text x="66" y="289" fill="currentColor" opacity="0.72" font-size="11.5">weak &amp; stale decay; valid-time closes</text>
<line x1="496" y1="300" x2="464" y2="274" stroke="#E11D48" stroke-opacity="0.4" stroke-width="1.5"/>
<circle cx="496" cy="300" r="3" fill="#E11D48"/>
<rect x="464" y="250" width="236" height="48" rx="12" fill="#E11D48" fill-opacity="0.06" stroke="#E11D48" stroke-opacity="0.55"/>
<circle cx="488" cy="274.0" r="13" fill="#E11D48"/>
<text x="488" y="278" fill="#fff" font-size="13" font-weight="700" text-anchor="middle">4</text>
<text x="510" y="272" fill="#E11D48" font-size="14" font-weight="700">Retrieve</text>
<text x="510" y="289" fill="currentColor" opacity="0.72" font-size="11.5">hybrid recall · bounded self-correction</text>
<line x1="360" y1="398" x2="360" y2="418" stroke="#E11D48" stroke-opacity="0.4" stroke-width="1.5" stroke-dasharray="5 4"/>
<circle cx="360" cy="398" r="3" fill="#E11D48"/>
<rect x="170" y="418" width="380" height="52" rx="12" fill="#E11D48" fill-opacity="0.06" stroke="#E11D48" stroke-opacity="0.55" stroke-dasharray="5 4"/>
<circle cx="194" cy="444.0" r="13" fill="#E11D48"/>
<text x="194" y="448" fill="#fff" font-size="13" font-weight="700" text-anchor="middle">5</text>
<text x="216" y="440" fill="#E11D48" font-size="14" font-weight="700">Reflect</text>
<text x="216" y="457" fill="currentColor" opacity="0.72" font-size="11.5">health vitals: the brain measuring itself</text>
<path d="M540 432 c 18 0 18 20 0 20 c -8 0 -10 -6 -6 -9" fill="none" stroke="#E11D48" stroke-opacity="0.6" stroke-width="1.5" stroke-linecap="round"/>
<path d="M534 445 l 2 -4 l 4 2 z" fill="#E11D48" fill-opacity="0.7"/>
</svg>