<svg xmlns="http://www.w3.org/2000/svg" width="720" height="486" viewBox="0 0 720 486" role="img" aria-label="A line-art brain surrounded by the five cognitive processes Mnemos runs, numbered in order: encode, consolidate, forget, retrieve, and reflect — the last being the brain-health vitals, the brain measuring itself." font-family="system-ui, -apple-system, Segoe UI, sans-serif">
<title>One brain, five organs</title>
<text x="24" y="34" fill="currentColor" font-size="17" font-weight="600">One brain, five organs</text>
<text x="24" y="55" fill="currentColor" opacity="0.62" font-size="12.5">The processes a memory needs — run continuously, deterministically, and now on a sleep cycle.</text>
<ellipse cx="360" cy="254" rx="140" ry="128" fill="#E11D48" fill-opacity="0.05"/>
<g transform="translate(211.2 101.2) scale(12.4)" fill="none" stroke="#E11D48" stroke-width="2.4" stroke-linecap="round" stroke-linejoin="round" vector-effect="non-scaling-stroke">
<path d="M15.5 13a3.5 3.5 0 0 0 -3.5 3.5v1a3.5 3.5 0 0 0 7 0v-1.8" vector-effect="non-scaling-stroke"/>
<path d="M8.5 13a3.5 3.5 0 0 1 3.5 3.5v1a3.5 3.5 0 0 1 -7 0v-1.8" vector-effect="non-scaling-stroke"/>
<path d="M17.5 16a3.5 3.5 0 0 0 0 -7h-.5" vector-effect="non-scaling-stroke"/>
<path d="M19 9.3v-2.8a3.5 3.5 0 0 0 -7 0" vector-effect="non-scaling-stroke"/>
<path d="M6.5 16a3.5 3.5 0 0 1 0 -7h.5" vector-effect="non-scaling-stroke"/>
<path d="M5 9.3v-2.8a3.5 3.5 0 0 1 7 0v10" vector-effect="non-scaling-stroke"/>
</g>
<line x1="300" y1="168" x2="270" y2="116" stroke="#E11D48" stroke-opacity="0.4" stroke-width="1.5"/>
<circle cx="300" cy="168" r="3" fill="#E11D48"/>
<rect x="20" y="92" width="250" height="48" rx="12" fill="#E11D48" fill-opacity="0.06" stroke="#E11D48" stroke-opacity="0.55"/>
<circle cx="43" cy="116.0" r="12.5" fill="#E11D48"/>
<text x="43" y="120" fill="#fff" font-size="13" font-weight="700" text-anchor="middle">1</text>
<text x="64" y="113" fill="#E11D48" font-size="13.5" font-weight="700">Encode</text>
<text x="64" y="130" fill="currentColor" opacity="0.72" font-size="11">capture → claims, salience-gated</text>
<line x1="420" y1="168" x2="430" y2="116" stroke="#E11D48" stroke-opacity="0.4" stroke-width="1.5"/>
<circle cx="420" cy="168" r="3" fill="#E11D48"/>
<rect x="430" y="92" width="250" height="48" rx="12" fill="#E11D48" fill-opacity="0.06" stroke="#E11D48" stroke-opacity="0.55"/>
<circle cx="453" cy="116.0" r="12.5" fill="#E11D48"/>
<text x="453" y="120" fill="#fff" font-size="13" font-weight="700" text-anchor="middle">2</text>
<text x="474" y="113" fill="#E11D48" font-size="13.5" font-weight="700">Consolidate</text>
<text x="474" y="130" fill="currentColor" opacity="0.72" font-size="11">dedupe · reinforce · replay</text>
<line x1="286" y1="262" x2="270" y2="268" stroke="#E11D48" stroke-opacity="0.4" stroke-width="1.5"/>
<circle cx="286" cy="262" r="3" fill="#E11D48"/>
<rect x="20" y="250" width="250" height="48" rx="12" fill="#E11D48" fill-opacity="0.06" stroke="#E11D48" stroke-opacity="0.55"/>
<circle cx="43" cy="274.0" r="12.5" fill="#E11D48"/>
<text x="43" y="278" fill="#fff" font-size="13" font-weight="700" text-anchor="middle">3</text>
<text x="64" y="271" fill="#E11D48" font-size="13.5" font-weight="700">Forget</text>
<text x="64" y="288" fill="currentColor" opacity="0.72" font-size="11">low-trust &amp; stale beliefs decay</text>
<line x1="434" y1="262" x2="452" y2="268" stroke="#E11D48" stroke-opacity="0.4" stroke-width="1.5"/>
<circle cx="434" cy="262" r="3" fill="#E11D48"/>
<rect x="452" y="250" width="248" height="48" rx="12" fill="#E11D48" fill-opacity="0.06" stroke="#E11D48" stroke-opacity="0.55"/>
<circle cx="475" cy="274.0" r="12.5" fill="#E11D48"/>
<text x="475" y="278" fill="#fff" font-size="13" font-weight="700" text-anchor="middle">4</text>
<text x="496" y="271" fill="#E11D48" font-size="13.5" font-weight="700">Retrieve</text>
<text x="496" y="288" fill="currentColor" opacity="0.72" font-size="11">hybrid recall + self-correction</text>
<line x1="360" y1="356" x2="360" y2="420" stroke="#E11D48" stroke-opacity="0.4" stroke-width="1.5" stroke-dasharray="5 4"/>
<circle cx="360" cy="356" r="3" fill="#E11D48"/>
<rect x="176" y="420" width="368" height="50" rx="12" fill="#E11D48" fill-opacity="0.06" stroke="#E11D48" stroke-opacity="0.55" stroke-dasharray="5 4"/>
<circle cx="199" cy="445.0" r="12.5" fill="#E11D48"/>
<text x="199" y="450" fill="#fff" font-size="13" font-weight="700" text-anchor="middle">5</text>
<text x="220" y="441" fill="#E11D48" font-size="13.5" font-weight="700">Reflect</text>
<text x="220" y="458" fill="currentColor" opacity="0.72" font-size="11">health vitals — the brain, self-measured</text>
<path d="M540 432 c 18 0 18 20 0 20 c -8 0 -10 -6 -6 -9" fill="none" stroke="#E11D48" stroke-opacity="0.6" stroke-width="1.5" stroke-linecap="round"/>
<path d="M534 445 l 2 -4 l 4 2 z" fill="#E11D48" fill-opacity="0.7"/>
</svg>