<svg xmlns="http://www.w3.org/2000/svg" width="720" height="384" viewBox="0 0 720 384" role="img" aria-label="Dissonance over a work week. Without a sleep cycle it ratchets upward and stays above the healthy line. With nightly consolidation it rises through each day and falls each night, oscillating in the healthy zone — a circadian rhythm." font-family="system-ui, -apple-system, Segoe UI, sans-serif">
<title>A circadian rhythm, not a ratchet</title>
<text x="24" y="34" fill="currentColor" font-size="17" font-weight="600">A circadian rhythm, not a ratchet</text>
<text x="24" y="55" fill="currentColor" opacity="0.62" font-size="12.5">Dissonance over a work week — the brain that sleeps recovers every night.</text>
<rect x="84" y="275.7" width="596" height="34.3" fill="currentColor" fill-opacity="0.04"/>
<text x="94" y="300" fill="currentColor" opacity="0.4" font-size="10.5" letter-spacing="0.4">healthy zone</text>
<line x1="84" y1="310" x2="680" y2="310" stroke="currentColor" stroke-opacity="0.35"/>
<line x1="84" y1="96" x2="84" y2="310" stroke="currentColor" stroke-opacity="0.35"/>
<text x="74" y="314" fill="currentColor" opacity="0.55" font-size="11" text-anchor="end">0</text>
<text x="74" y="106" fill="currentColor" opacity="0.55" font-size="11" text-anchor="end">high</text>
<text x="34" y="207" fill="currentColor" opacity="0.55" font-size="11" transform="rotate(-90 34 207)" text-anchor="middle">dissonance</text>
<text x="144" y="329" fill="currentColor" opacity="0.5" font-size="11" text-anchor="middle">day 1</text>
<text x="263" y="329" fill="currentColor" opacity="0.5" font-size="11" text-anchor="middle">day 2</text>
<line x1="203" y1="96" x2="203" y2="310" stroke="currentColor" stroke-opacity="0.07"/>
<text x="382" y="329" fill="currentColor" opacity="0.5" font-size="11" text-anchor="middle">day 3</text>
<line x1="322" y1="96" x2="322" y2="310" stroke="currentColor" stroke-opacity="0.07"/>
<text x="501" y="329" fill="currentColor" opacity="0.5" font-size="11" text-anchor="middle">day 4</text>
<line x1="442" y1="96" x2="442" y2="310" stroke="currentColor" stroke-opacity="0.07"/>
<text x="620" y="329" fill="currentColor" opacity="0.5" font-size="11" text-anchor="middle">day 5</text>
<line x1="561" y1="96" x2="561" y2="310" stroke="currentColor" stroke-opacity="0.07"/>
<line x1="84" y1="275.7" x2="680" y2="275.7" stroke="currentColor" stroke-opacity="0.45" stroke-dasharray="4 4"/>
<text x="90" y="268.7" fill="currentColor" opacity="0.6" font-size="11" text-anchor="start">healthy line</text>
<path d="M 84.0 272.2 C 103.9 267.7 163.5 253.9 203.2 244.8 C 242.9 235.6 282.7 226.5 322.4 217.3 C 362.1 208.1 401.9 199.0 441.6 189.8 C 481.3 180.7 521.1 171.5 560.8 162.4 C 600.5 153.2 660.1 139.5 680.0 134.9" fill="none" stroke="currentColor" stroke-opacity="0.5" stroke-width="2" stroke-linejoin="round" stroke-linecap="round"/>
<text x="434" y="178" fill="currentColor" opacity="0.62" font-size="11.5" text-anchor="end">without sleep — a ratchet</text>
<path d="M 90.0 288.0 C 103.3 282.1 150.0 252.7 169.8 252.3 C 189.7 251.9 189.3 286.0 209.2 285.6 C 229.0 285.2 269.2 250.3 289.0 249.9 C 308.9 249.5 308.5 283.6 328.4 283.2 C 348.2 282.8 388.4 247.9 408.2 247.5 C 428.1 247.1 427.7 281.2 447.6 280.8 C 467.4 280.4 507.6 245.5 527.4 245.1 C 547.3 244.7 546.9 278.8 566.8 278.4 C 586.6 278.0 626.8 243.1 646.6 242.7 C 666.5 242.3 679.4 270.5 686.0 276.0" fill="none" stroke="#E11D48" stroke-width="2.4" stroke-linejoin="round" stroke-linecap="round"/>
<circle cx="169.8" cy="252.3" r="3" fill="#E11D48"/>
<circle cx="289.0" cy="249.9" r="3" fill="#E11D48"/>
<circle cx="408.2" cy="247.5" r="3" fill="#E11D48"/>
<circle cx="527.4" cy="245.1" r="3" fill="#E11D48"/>
<circle cx="646.6" cy="242.7" r="3" fill="#E11D48"/>
<text x="189" y="289" fill="#E11D48" font-size="9" text-anchor="middle" opacity="0.8">sleep</text>
<text x="309" y="287" fill="#E11D48" font-size="9" text-anchor="middle" opacity="0.8">sleep</text>
<text x="428" y="284" fill="#E11D48" font-size="9" text-anchor="middle" opacity="0.8">sleep</text>
<text x="547" y="282" fill="#E11D48" font-size="9" text-anchor="middle" opacity="0.8">sleep</text>
<text x="170" y="240" fill="#E11D48" font-size="11.5" font-weight="600" text-anchor="middle">with nightly consolidation</text>
</svg>