<svg xmlns="http://www.w3.org/2000/svg" width="640" height="346" viewBox="0 0 640 346" role="img" aria-label="Where the context tokens actually go" font-family="system-ui, -apple-system, Segoe UI, sans-serif"><title>Where the context tokens actually go</title><text x="24" y="30" fill="currentColor" font-size="17" font-weight="600">Where the context tokens actually go</text><text x="24" y="68" fill="currentColor" font-size="13" font-weight="500">File reads</text><text x="616" y="68" fill="currentColor" opacity="0.7" font-size="13" font-weight="600" text-anchor="end">46.5%</text><rect x="24" y="70" width="592" height="12" rx="6" fill="currentColor" opacity="0.10"/><rect x="24" y="70" width="275.0" height="12" rx="6" fill="#6366F1" fill-opacity="1"/><text x="24" y="98" fill="currentColor" opacity="0.55" font-size="11">source files the agent reads</text><text x="24" y="120" fill="currentColor" font-size="13" font-weight="500">Command output</text><text x="616" y="120" fill="currentColor" opacity="0.7" font-size="13" font-weight="600" text-anchor="end">26.6%</text><rect x="24" y="122" width="592" height="12" rx="6" fill="currentColor" opacity="0.10"/><rect x="24" y="122" width="157.5" height="12" rx="6" fill="#6366F1" fill-opacity="0.34"/><text x="24" y="150" fill="currentColor" opacity="0.55" font-size="11">git, tests, builds, greps</text><text x="24" y="172" fill="currentColor" font-size="13" font-weight="500">Model prose</text><text x="616" y="172" fill="currentColor" opacity="0.7" font-size="13" font-weight="600" text-anchor="end">11.4%</text><rect x="24" y="174" width="592" height="12" rx="6" fill="currentColor" opacity="0.10"/><rect x="24" y="174" width="67.7" height="12" rx="6" fill="#6366F1" fill-opacity="0.34"/><text x="24" y="202" fill="currentColor" opacity="0.55" font-size="11">what "terse-speak" compresses</text><text x="24" y="224" fill="currentColor" font-size="13" font-weight="500">Everything else</text><text x="616" y="224" fill="currentColor" opacity="0.7" font-size="13" font-weight="600" text-anchor="end">11.8%</text><rect x="24" y="226" width="592" height="12" rx="6" fill="currentColor" opacity="0.10"/><rect x="24" y="226" width="69.9" height="12" rx="6" fill="#6366F1" fill-opacity="0.34"/><text x="24" y="254" fill="currentColor" opacity="0.55" font-size="11">edits, subagents, screenshots, web</text><text x="24" y="276" fill="currentColor" font-size="13" font-weight="500">Our prompts</text><text x="616" y="276" fill="currentColor" opacity="0.7" font-size="13" font-weight="600" text-anchor="end">3.7%</text><rect x="24" y="278" width="592" height="12" rx="6" fill="currentColor" opacity="0.10"/><rect x="24" y="278" width="21.8" height="12" rx="6" fill="#6366F1" fill-opacity="0.34"/><text x="24" y="334" fill="currentColor" opacity="0.45" font-size="11">tokenops fmt analyze · 768 sessions</text></svg>