<svg xmlns="http://www.w3.org/2000/svg" width="640" height="316" viewBox="0 0 640 316" role="img" aria-label="Context composition over time" font-family="system-ui, -apple-system, Segoe UI, sans-serif"><title>Context composition over time</title><text x="24" y="30" fill="currentColor" font-size="17" font-weight="600">Context composition over time</text><polygon points="24.0,174.9 172.0,165.3 320.0,159.8 468.0,173.3 616.0,164.1 616.0,264.0 468.0,264.0 320.0,264.0 172.0,264.0 24.0,264.0" fill="#6366F1" fill-opacity="0.72" stroke="currentColor" stroke-opacity="0.06"/><polygon points="24.0,105.8 172.0,112.1 320.0,113.4 468.0,119.6 616.0,112.4 616.0,164.1 468.0,173.3 320.0,159.8 172.0,165.3 24.0,174.9" fill="#6366F1" fill-opacity="0.5" stroke="currentColor" stroke-opacity="0.06"/><polygon points="24.0,89.3 172.0,88.2 320.0,86.0 468.0,93.8 616.0,83.4 616.0,112.4 468.0,119.6 320.0,113.4 172.0,112.1 24.0,105.8" fill="#6366F1" fill-opacity="0.34" stroke="currentColor" stroke-opacity="0.06"/><polygon points="24.0,64.0 172.0,64.0 320.0,64.0 468.0,64.0 616.0,64.0 616.0,83.4 468.0,93.8 320.0,86.0 172.0,88.2 24.0,89.3" fill="#6366F1" fill-opacity="0.18" stroke="currentColor" stroke-opacity="0.06"/><rect x="24" y="46" width="11" height="11" rx="2" fill="#6366F1" fill-opacity="0.72"/><text x="40" y="56" fill="currentColor" font-size="12" font-weight="500">Read</text><rect x="100" y="46" width="11" height="11" rx="2" fill="#6366F1" fill-opacity="0.5"/><text x="116" y="56" fill="currentColor" font-size="12" font-weight="500">Bash</text><rect x="176" y="46" width="11" height="11" rx="2" fill="#6366F1" fill-opacity="0.34"/><text x="192" y="56" fill="currentColor" font-size="12" font-weight="500">Model prose</text><rect x="308" y="46" width="11" height="11" rx="2" fill="#6366F1" fill-opacity="0.18"/><text x="324" y="56" fill="currentColor" font-size="12" font-weight="500">Other</text><text x="24.0" y="286" fill="currentColor" opacity="0.5" font-size="11" text-anchor="middle">2026-06-01</text><text x="172.0" y="286" fill="currentColor" opacity="0.5" font-size="11" text-anchor="middle">2026-06-08</text><text x="320.0" y="286" fill="currentColor" opacity="0.5" font-size="11" text-anchor="middle">2026-06-15</text><text x="468.0" y="286" fill="currentColor" opacity="0.5" font-size="11" text-anchor="middle">2026-06-22</text><text x="616.0" y="286" fill="currentColor" opacity="0.5" font-size="11" text-anchor="middle">2026-06-29</text><text x="24" y="304" fill="currentColor" opacity="0.45" font-size="11">tokenops fmt analyze · share of context bytes by source</text></svg>